<?xml version="1.0" encoding="utf-8"?>
<!-- Generator: Adobe Illustrator 18.0.0, SVG Export Plug-In . SVG Version: 6.00 Build 0)  -->
<!DOCTYPE svg PUBLIC "-//W3C//DTD SVG 1.1//EN" "http://www.w3.org/Graphics/SVG/1.1/DTD/svg11.dtd">
<svg version="1.1" id="Brain" xmlns="http://www.w3.org/2000/svg" xmlns:xlink="http://www.w3.org/1999/xlink" x="0px" y="0px"
	 viewBox="0 0 200 200" enable-background="new 0 0 200 200" xml:space="preserve">
<g id="Art">
	<linearGradient id="SVGID_1_" gradientUnits="userSpaceOnUse" x1="56.3347" y1="183.625" x2="56.3347" y2="16.9683">
		<stop  offset="0" style="stop-color:#E63C2F"/>
		<stop  offset="1" style="stop-color:#F0907B"/>
	</linearGradient>
	<path fill="url(#SVGID_1_)" d="M98.974,131.744c-1.105-4.425-3.923-7.064-6.41-8.587c7.523-11.265,6.722-22.777-2.328-33.409
		c4.975-4.179,7.797-9.217,8.394-14.992c0.639-6.186-1.471-12.951-5.664-18.257c3.619-4.71,12.31-20.88,1.36-32.68
		c-4.219-4.546-8.886-6.852-13.871-6.852c-7.923,0-12.231,6.286-16.029,12.032c-1.588-0.748-5.729-1.575-7.588-1.575
		c-5.08,0-9.888,2.791-12.249,7.109c-1.403,2.565-1.852,5.471-1.387,8.548c-5.754,0.663-9.854,2.788-12.151,6.363
		c-2.674,4.16-2.784,10.176-0.342,17.442c-5.316,1.523-10.903,5.133-13.202,10.705c-1.541,3.736-2.113,9.836,3.554,17.892
		c-6.012,4.809-8.876,12.846-7.861,22.246c1.201,11.122,7.586,21.126,16.009,25.225c-1.909,6.256-1.358,11.917,1.581,16.024
		c3.06,4.277,8.437,6.608,15.58,6.765c-0.26,6.223,1.38,9.179,4.255,12.258c2.284,2.445,5.559,3.5,9.352,3.5
		c2.654,0,5.735-3.049,8.523-4.25c2.716,4.35,4.399,5.5,10.125,5.5c2.521,0,2.135,0.875,2.136,0.875
		c3.181,0,8.499-0.703,11.114-2.375c4.497-2.875,6.139-2.448,6.963-7.49c1.001-6.124-1.218-12.873-6.422-19.557
		C98.295,145.417,100.502,137.863,98.974,131.744z"/>
	<g>
		<linearGradient id="SVGID_2_" gradientUnits="userSpaceOnUse" x1="72.5288" y1="29.5" x2="72.5288" y2="181.0998">
			<stop  offset="0" style="stop-color:#F8755C"/>
			<stop  offset="1" style="stop-color:#DC210B"/>
		</linearGradient>
		<path fill="url(#SVGID_2_)" d="M69.999,47.5c-5.874,5.25-12.731,1.624-13.678-2.5s4.671-5.685,7.106-2
			c-1.427-4,1.198-6.375,3.698-4c2.513,2.387,8.625,3.375,9.625-5.5s6.48-5.875,6.677-1.5c0.705-1.818,4.698-3.875,5.364,3
			c0.418,4.32-1.666,11.75-8.078,12.839C69.707,49.706,69.999,47.5,69.999,47.5z"/>
		<linearGradient id="SVGID_3_" gradientUnits="userSpaceOnUse" x1="78.0625" y1="29.5" x2="78.0625" y2="181.0998">
			<stop  offset="0" style="stop-color:#F8755C"/>
			<stop  offset="1" style="stop-color:#DC210B"/>
		</linearGradient>
		<path fill="url(#SVGID_3_)" d="M96.142,38.51c-2.394,14.686-12.475,12.24-13.309,18.656c-0.297,2.285,1.606,3.591,3.5,3.917
			c3.183,0.547,3.25,4.917-1.156,4.99c4.448,1.802,6.375,9.76-0.677,9.26c4.417,2.667,2.029,4.442-1.75,4.501
			c4.667,1.916,1.335,5.379-2.279,6.921c-1.71,0.73-2.998,2.436-3.138,4.447c-0.146,2.11,2.323,3.852,4.875,5.383
			c4.016,2.408,8.237,4.289,2.792,6.249c6.906,1.129,3.5,9.75-3.75,9.167c-4.793-0.386-13.167-5.083-8.721-10.125
			C69.75,98.5,66.375,97,66.375,97h-6.376l-1.874,7.638l5,5.363L65,118l10.5-0.625l5.875,3.25l7.467,0.533l4.908-1.157l3.897-11.205
			L94.5,98.25l-4.875-8.875l7-9.375L98,68.5L92,56l6-9.625L96.142,38.51z"/>
		<linearGradient id="SVGID_4_" gradientUnits="userSpaceOnUse" x1="65.2923" y1="29.5" x2="65.2923" y2="181.0998">
			<stop  offset="0" style="stop-color:#F8755C"/>
			<stop  offset="1" style="stop-color:#DC210B"/>
		</linearGradient>
		<path fill="url(#SVGID_4_)" d="M72.529,74.417c-2.362-2.25-1.612-6.25,1.721-6.5c-6.917-3.583-10-3.583-10-3.583v9l-6.125,5.333
			L56.335,92.5l5.999,4.083l5.583-0.5l0.833-9.833L66,81.75l2.75-5.417L72.529,74.417z"/>
		<linearGradient id="SVGID_5_" gradientUnits="userSpaceOnUse" x1="48.3686" y1="29.5" x2="48.3686" y2="181.0998">
			<stop  offset="0" style="stop-color:#F8755C"/>
			<stop  offset="1" style="stop-color:#DC210B"/>
		</linearGradient>
		<path fill="url(#SVGID_5_)" d="M50,54c-6.5,2.667-8.75,6.416-6.584,11c1.667-0.25,4.511-1.25,4.511-1.25
			c5.656-5.833,13.489,8.75-4.344,9.75c-13.129,0.736-11.347,10.695-2.924,9.014c-4.41,2.486-1.993,4.736,0.924,4.569
			c3.42-0.195,6.423,5.267-8.333,4.667c-5.933-0.241,7.5,3.25,7.5,3.25L43,96.833l11.333-4.083l3.333-6.333V79l6.25-6.833L65,61.083
			L50,54z"/>
		<linearGradient id="SVGID_6_" gradientUnits="userSpaceOnUse" x1="71.0022" y1="29.5" x2="71.0022" y2="181.0998">
			<stop  offset="0" style="stop-color:#F8755C"/>
			<stop  offset="1" style="stop-color:#DC210B"/>
		</linearGradient>
		<path fill="url(#SVGID_6_)" d="M66.333,146.833c-6.5-8.5-0.344-16.247,3.666-10.833c1.834-6.167,11.501-7.333,7.584,4.5
			c-1.917,2.875-8.417,1.138-9.417,4.069S66.333,146.833,66.333,146.833z"/>
		<linearGradient id="SVGID_7_" gradientUnits="userSpaceOnUse" x1="51.4997" y1="29.5" x2="51.4997" y2="181.0998">
			<stop  offset="0" style="stop-color:#F8755C"/>
			<stop  offset="1" style="stop-color:#DC210B"/>
		</linearGradient>
		<polygon fill="url(#SVGID_7_)" points="43,96.833 43,107 52,104 56.335,104.638 59.999,97 55,89.999 		"/>
		<linearGradient id="SVGID_8_" gradientUnits="userSpaceOnUse" x1="33.4176" y1="29.5" x2="33.4176" y2="181.0998">
			<stop  offset="0" style="stop-color:#F8755C"/>
			<stop  offset="1" style="stop-color:#DC210B"/>
		</linearGradient>
		<path fill="url(#SVGID_8_)" d="M39.125,105.625c-2.5-7.125-16.859-3.505-9.177,3.375C37,106.25,39.125,105.625,39.125,105.625z"/>
		<linearGradient id="SVGID_9_" gradientUnits="userSpaceOnUse" x1="30.8446" y1="29.5" x2="30.8446" y2="181.0998">
			<stop  offset="0" style="stop-color:#F8755C"/>
			<stop  offset="1" style="stop-color:#DC210B"/>
		</linearGradient>
		<path fill="url(#SVGID_9_)" d="M35.875,113.386c-7.75,0.114-14.203,3.671-6.789,7.955C35,116.5,35.875,113.386,35.875,113.386z"/>
		<linearGradient id="SVGID_10_" gradientUnits="userSpaceOnUse" x1="31.786" y1="29.5" x2="31.786" y2="181.0998">
			<stop  offset="0" style="stop-color:#F8755C"/>
			<stop  offset="1" style="stop-color:#DC210B"/>
		</linearGradient>
		<path fill="url(#SVGID_10_)" d="M30.845,142.25l-8.47-5.5l-6.5-11.75c7.75,7.75,13.624,6.75,19.125,1.75
			s14.355-13.943,12.428-5.409c-1.303,4.784-5.678,8.284-9.178,11.409S30.845,142.25,30.845,142.25z"/>
		<linearGradient id="SVGID_11_" gradientUnits="userSpaceOnUse" x1="53.7018" y1="29.5" x2="53.7018" y2="181.0998">
			<stop  offset="0" style="stop-color:#F8755C"/>
			<stop  offset="1" style="stop-color:#DC210B"/>
		</linearGradient>
		<path fill="url(#SVGID_11_)" d="M51.5,106.878c7.244,1.585,9.474,9.122,4.675,15.747s-6.175,8-9.55,11.5
			c-2.716,2.818-5.645,6.981-2.056,10.444c1.806,1.744,7.602,2.531,9.931,7.681c2.375,5.25,1.29,8.246,0.938,11.062
			c-0.938,7.5,5.125,8.375,4.736,3.021C59.584,158.2,64.5,155.75,64.5,155.75l-6.375-5.25l-3.858-10L57,131.315l2.999-2.69
			l4.501-9.75V110l-6.375-6.5L51.5,106.878z"/>
		<linearGradient id="SVGID_12_" gradientUnits="userSpaceOnUse" x1="43.4442" y1="29.5" x2="43.4442" y2="181.0998">
			<stop  offset="0" style="stop-color:#F8755C"/>
			<stop  offset="1" style="stop-color:#DC210B"/>
		</linearGradient>
		<path fill="url(#SVGID_12_)" d="M45.667,149.167c-4.167-1.479-6.417-0.604-7.248,1.446c-0.714,1.761,1.198,4.439,2.331,5.638
			c2.004,2.119,0.707,4.469-1.688,5.5c4.188,2,9.562-1.25,9.562-1.25l-0.5-9.188C48.125,151.312,46.826,149.578,45.667,149.167z"/>
		<linearGradient id="SVGID_13_" gradientUnits="userSpaceOnUse" x1="75.0889" y1="29.5" x2="75.0889" y2="181.0998">
			<stop  offset="0" style="stop-color:#F8755C"/>
			<stop  offset="1" style="stop-color:#DC210B"/>
		</linearGradient>
		<path fill="url(#SVGID_13_)" d="M92.144,125.983C98.625,133.625,86.25,156.333,77,153c9.812,5,14.521,20.208,3.761,16.667
			c-1.737-2.133-2.529-3.53-3.914-3.822c1.662,5.072-3.023,6.747-4.93,1.905C70.833,165,67.495,164,65,169.5
			c-2.496,5.5-9.551,7.64-12.401,5.07C50.875,177.25,55,180,55,180l14.125-3.75l9.384,5.75L93,178l5-8.5l-8.5-15.667l5.5-6.458
			L98,134L92.144,125.983z"/>
	</g>
	<linearGradient id="SVGID_14_" gradientUnits="userSpaceOnUse" x1="56.3216" y1="15.0103" x2="56.3216" y2="185.1517">
		<stop  offset="0" style="stop-color:#E63C2F"/>
		<stop  offset="1" style="stop-color:#90292A"/>
	</linearGradient>
	<path fill="url(#SVGID_14_)" d="M99.43,161.91c-0.495-1.206-1.031-2.385-1.658-3.48c-0.609-1.112-1.286-2.156-1.982-3.181
		l-0.928-1.283c1.586-2.914,2.997-5.96,4.05-9.205c1.27-3.912,2.111-8.155,1.641-12.601c-0.242-2.208-0.846-4.456-1.936-6.522
		c-0.878-1.665-2.087-3.175-3.526-4.423c8.458-12.011,3.675-23.303-2.771-31.309c4.537-4.218,7.22-9.358,7.803-14.995
		c0.641-6.207-1.313-12.949-5.271-18.406c5.096-7.094,10.876-22.605,0.574-33.706c-5.926-6.386-13.144-9.025-19.801-7.246
		c-5.248,1.404-9.519,5.42-11.671,10.798c-5.977-2.567-12.865-1.405-17.64,3.241c-2.858,2.78-4.97,7.019-4.694,12.175
		c-5.497,0.895-9.472,3.197-11.832,6.867c-2.733,4.253-3.057,10.166-0.982,17.208c-0.965,0.305-1.927,0.663-2.877,1.091
		c-1.663,0.751-3.305,1.687-4.787,2.895c-1.489,1.194-2.856,2.611-3.966,4.236c-1.11,1.624-1.879,3.487-2.308,5.349
		c-0.438,1.867-0.486,3.735-0.284,5.428c0.19,1.702,0.628,3.218,1.121,4.557c0.524,1.321,1.076,2.48,1.641,3.444
		c0.552,0.96,1.114,1.783,1.587,2.453c0.007,0.01,0.013,0.017,0.02,0.028c-5.618,5.204-8.249,13.268-7.245,22.569
		c1.187,11,7.278,20.955,15.451,25.654c-0.2,0.564-0.393,1.131-0.55,1.716c-0.741,2.834-0.935,5.947-0.191,8.969
		c0.72,3.02,2.433,5.835,4.723,7.894c2.282,2.09,5.047,3.438,7.837,4.26c1.399,0.427,2.819,0.684,4.234,0.874
		c0.458,0.064,0.915,0.107,1.371,0.144c0.008,0.581,0.028,1.164,0.089,1.755c0.044,0.776,0.195,1.569,0.333,2.356l0.277,1.186
		c0.113,0.395,0.247,0.789,0.374,1.183c0.285,0.784,0.611,1.567,1.04,2.319c0.411,0.755,0.907,1.488,1.483,2.163
		c0.564,0.683,1.221,1.306,1.932,1.855c0.711,0.552,1.489,1.008,2.291,1.405c0.813,0.367,1.65,0.674,2.503,0.877
		c0.852,0.203,1.715,0.343,2.572,0.382c0.859,0.062,1.712,0.024,2.554-0.062c0.843-0.086,1.669-0.253,2.484-0.459
		c0.809-0.225,1.605-0.498,2.375-0.837c0.768-0.345,1.521-0.731,2.234-1.199c0.331-0.206,0.65-0.434,0.964-0.671
		c1.05,1.141,2.261,2.127,3.567,2.893c2.424,1.43,5.098,2.221,7.762,2.494c2.671,0.273,5.35,0.044,7.933-0.628
		c0.327-0.093,0.631-0.167,0.984-0.285l0.513-0.166l0.414-0.148c0.643-0.233,1.243-0.485,1.853-0.772
		c1.211-0.569,2.386-1.256,3.494-2.082c2.21-1.635,4.166-3.936,5.243-6.703c1.098-2.761,1.216-5.8,0.698-8.487
		C100.291,164.419,99.895,163.139,99.43,161.91z M49.801,33.176c3.143-3.058,8.933-4.709,14.219-1.109l3.026,2.061l0.818-3.568
		c1.167-5.095,4.637-8.994,9.053-10.175c4.88-1.306,10.151,0.76,14.844,5.817c4.033,4.346,5.305,9.926,3.781,16.585
		c-1.251,5.466-4.122,10.211-5.747,12.068l-1.413,1.614l1.381,1.642c3.941,4.685,5.954,10.774,5.385,16.288
		c-0.527,5.103-3.182,9.565-7.891,13.261l-2.095,1.645l1.775,1.987c8.783,9.832,10.035,18.786,3.848,27.333
		c-1.053-0.401-2.153-0.688-3.282-0.836c-1.182-0.152-2.401-0.152-3.637,0.053c-0.519,0.088-1.04,0.224-1.56,0.396
		c-0.25-0.288-0.503-0.557-0.767-0.787c-0.312-0.307-0.663-0.578-1.017-0.849c-0.703-0.551-1.508-0.977-2.329-1.356
		c-1.669-0.714-3.488-1.012-5.216-0.971c-1.732,0.05-3.372,0.418-4.862,0.954c-0.062,0.022-0.12,0.049-0.181,0.072
		c-0.067-1.389-0.293-3.054-0.921-4.908c-0.482-1.433-1.273-2.942-2.391-4.366c-1.104-1.389-2.586-2.651-4.331-3.53
		c-0.187-1.408,0.251-2.569,0.722-3.357c0.877,0.221,1.783,0.345,2.709,0.345c1.131,0,2.287-0.172,3.438-0.504
		c0.432,0.633,0.918,1.217,1.46,1.727c0.989,0.952,2.096,1.698,3.218,2.175c1.107,0.515,2.22,0.755,3.221,0.906
		c0.505,0.058,0.988,0.072,1.44,0.092c0.453,0.007,0.88-0.038,1.276-0.067c0.791-0.049,1.462-0.26,2.002-0.361
		c0.539-0.147,0.95-0.321,1.228-0.413c0.275-0.108,0.422-0.166,0.422-0.166s-0.629-0.182-1.657-0.415
		c-0.51-0.171-1.126-0.311-1.789-0.566c-0.67-0.224-1.387-0.53-2.12-0.889c-0.718-0.39-1.464-0.812-2.127-1.375
		c-0.691-0.522-1.29-1.184-1.821-1.893c-0.542-0.706-0.95-1.524-1.273-2.384c-0.303-0.866-0.541-1.781-0.601-2.73
		c-0.039-0.44-0.041-0.882-0.023-1.324c0.107-0.339,0.139-0.696,0.095-1.052c0.019-0.156,0.024-0.313,0.048-0.467
		c0.143-0.943,0.442-1.843,0.793-2.7c0.346-0.865,0.829-1.641,1.332-2.369c0.266-0.352,0.522-0.709,0.818-1.017
		c0.143-0.162,0.284-0.321,0.422-0.477c0.153-0.144,0.303-0.286,0.45-0.425c0.282-0.304,0.599-0.536,0.894-0.783
		c0.287-0.263,0.593-0.462,0.88-0.665c0.571-0.428,1.094-0.725,1.546-1.012c0.951-0.51,1.511-0.828,1.511-0.828
		s-0.157-0.019-0.453-0.054c-0.294-0.013-0.722-0.1-1.273-0.084c-0.552,0.032-1.282,0.024-2.053,0.197
		c-0.397,0.063-0.815,0.156-1.247,0.299c-0.437,0.13-0.897,0.28-1.355,0.498c-0.941,0.389-1.896,0.987-2.83,1.741
		c-0.462,0.396-0.923,0.833-1.358,1.317c0.018-0.254,0.039-0.51,0.077-0.778c0.202-1.3,0.765-2.722,1.636-3.99
		c0.426-0.643,0.952-1.217,1.499-1.764c0.546-0.553,1.163-1.012,1.792-1.424c1.274-0.795,2.66-1.247,3.907-1.395
		c0.623-0.082,1.212-0.09,1.735-0.054c0.529,0.029,0.977,0.111,1.354,0.185c0.383,0.059,0.678,0.174,0.882,0.22
		c0.203,0.056,0.311,0.086,0.311,0.086s-0.094-0.061-0.271-0.176c-0.183-0.107-0.422-0.301-0.78-0.479
		c-0.355-0.19-0.802-0.406-1.336-0.591c-0.533-0.193-1.162-0.365-1.87-0.471c-0.709-0.118-1.497-0.138-2.332-0.07
		c-0.834,0.076-1.711,0.249-2.597,0.531c-0.875,0.298-1.774,0.675-2.62,1.183c-0.841,0.514-1.659,1.117-2.393,1.821
		c-1.481,1.396-2.695,3.14-3.443,5.035c-0.362,0.948-0.658,1.923-0.72,2.894c-0.097,0.965,0.016,1.901,0.186,2.739
		c0.193,0.837,0.425,1.59,0.7,2.228c0.143,0.316,0.277,0.611,0.4,0.884c0.147,0.259,0.282,0.496,0.404,0.711
		c0.102,0.188,0.204,0.336,0.302,0.475c-0.035,0.604-0.041,1.212,0.001,1.82c0.036,0.426,0.102,0.85,0.182,1.271
		c-1.391,0.298-2.743,0.197-3.897-0.311c-0.058-0.031-0.114-0.064-0.174-0.09c-0.16-0.077-0.32-0.154-0.471-0.247
		c-1.123-0.693-1.871-1.773-2.172-3.087c0.107-0.155,0.22-0.308,0.32-0.467c1.835-2.914,2.387-6.308,1.669-9.766
		c0.037-0.019,0.076-0.036,0.114-0.055c1.478-0.624,2.718-1.711,3.773-2.865c0.445-0.626,0.978-1.221,1.302-1.893
		c0.178-0.331,0.355-0.659,0.531-0.986c0.142-0.335,0.261-0.677,0.387-1.013c0.499-1.348,0.71-2.691,0.836-3.958
		c0.017-0.633,0.011-1.247,0.004-1.84c-0.013-0.13-0.026-0.248-0.039-0.377c0.375,0.187,0.761,0.372,1.16,0.554
		c0.695,0.291,1.405,0.589,2.181,0.819c0.752,0.254,1.571,0.437,2.368,0.623c0.82,0.158,1.642,0.272,2.473,0.3
		c0.407,0.037,0.817,0.036,1.225,0.013c0.406-0.02,0.799-0.017,1.19-0.087c0.78-0.123,1.516-0.236,2.19-0.475
		c0.681-0.183,1.279-0.483,1.824-0.73c0.55-0.235,0.987-0.594,1.395-0.832c0.406-0.247,0.713-0.535,0.971-0.754
		c0.496-0.451,0.78-0.709,0.78-0.709s-0.372,0.081-1.024,0.223c-0.317,0.076-0.693,0.178-1.143,0.218
		c-0.446,0.043-0.917,0.175-1.457,0.157c-0.53,0.019-1.085,0.069-1.673-0.009c-0.58-0.014-1.183-0.121-1.788-0.235
		c-0.302-0.043-0.607-0.17-0.911-0.235c-0.305-0.07-0.609-0.159-0.912-0.284c-0.608-0.197-1.205-0.494-1.804-0.748
		c-0.594-0.306-1.181-0.587-1.747-0.948c-0.57-0.323-1.127-0.69-1.672-1.015c-0.423-0.265-0.823-0.515-1.22-0.764
		c0.107-0.034,0.22-0.058,0.327-0.094c6.818-2.268,10.938-7.946,10.562-14.5c0.709-0.442,1.381-0.947,1.975-1.534
		c0.916-0.887,1.624-1.953,2.143-3.031c0.525-1.086,0.776-2.215,0.915-3.258c0.035-0.526,0.068-1.033,0.052-1.516
		c-0.047-0.483-0.056-0.945-0.139-1.377c-0.092-0.431-0.162-0.839-0.266-1.217c-0.124-0.374-0.234-0.725-0.353-1.047
		c-0.245-0.642-0.542-1.166-0.761-1.593C83.769,32.43,83.427,32,83.427,32s-0.074,0.57-0.116,1.487
		c-0.052,0.45-0.114,0.996-0.186,1.623c-0.046,0.299-0.094,0.617-0.146,0.952c-0.069,0.321-0.142,0.659-0.217,1.011
		c-0.166,0.688-0.396,1.391-0.68,2.078c-0.314,0.675-0.657,1.343-1.111,1.941c-0.455,0.597-0.97,1.147-1.562,1.639
		c-0.61,0.47-1.269,0.906-2,1.248c-0.714,0.376-1.512,0.613-2.307,0.831c-0.4,0.106-0.808,0.173-1.213,0.258
		c-0.409,0.045-0.817,0.114-1.224,0.136c-0.814,0.07-1.618,0.06-2.387-0.002c-0.776-0.044-1.504-0.186-2.195-0.328
		c-0.347-0.069-0.662-0.181-0.989-0.255c-0.315-0.105-0.615-0.204-0.896-0.298c-0.551-0.228-1.066-0.415-1.454-0.621
		c-0.405-0.185-0.746-0.393-0.966-0.514C63.55,43.065,63.427,43,63.427,43s0.048,0.13,0.138,0.374c0.11,0.234,0.198,0.6,0.473,1.017
		c0.246,0.445,0.588,0.948,1.038,1.489c0.235,0.258,0.5,0.522,0.785,0.805c0.3,0.255,0.623,0.531,0.979,0.79
		c0.721,0.499,1.559,1.001,2.519,1.361c0.954,0.373,2.015,0.666,3.143,0.785c1.02,0.13,2.099,0.124,3.187-0.015
		c-0.433,4.247-3.819,6.89-7.118,7.988c-5.72,1.906-13.827,0.186-19.04-7.943C43.591,40.386,48.236,34.699,49.801,33.176z
		 M46.64,102.463c-0.139-1.649-0.488-3.062-0.956-4.289c3.47-0.699,6.556-1.997,9.022-3.77c0.505,0.894,1.149,1.696,1.91,2.391
		c-0.63,1.102-1.203,2.538-1.348,4.234c-0.292-0.029-0.583-0.069-0.876-0.078c-2.012-0.077-4.015,0.224-5.872,0.811
		c-0.469,0.139-0.923,0.306-1.372,0.484l-0.168,0.067l-0.174,0.072l-0.071,0.034L46.64,102.463z M20.686,80.729
		c0.506-2.334,1.954-4.657,4.099-6.516c1.069-0.919,2.251-1.776,3.525-2.461c1.268-0.693,2.601-1.249,3.923-1.652
		c0.066-0.02,0.131-0.039,0.197-0.059c0.143-0.025,0.286-0.063,0.428-0.114c0.025-0.009,0.046-0.024,0.071-0.034
		c0.096-0.028,0.193-0.057,0.288-0.086c0.341-0.082,0.68-0.163,1.014-0.244c0.737-0.183,1.432-0.322,2.157-0.532
		c1.438-0.373,2.746-0.804,3.957-1.239c1.207-0.442,2.292-0.911,3.238-1.367c0.951-0.44,1.749-0.905,2.4-1.288
		c1.296-0.792,1.944-1.389,1.944-1.389s-0.865,0.098-2.333,0.209c-0.727,0.058-1.61,0.128-2.623,0.208
		c-1.002,0.072-2.133,0.154-3.366,0.243c-1.22,0.091-2.541,0.19-3.939,0.295c-0.63,0.05-1.28,0.102-1.938,0.155
		c-1.359-4.396-2.141-9.774,0.268-13.522c1.577-2.454,4.462-4.014,8.581-4.658c0.602,1.819,1.492,3.713,2.747,5.67
		c4.152,6.476,9.838,9.735,15.362,10.664c0.041,0.101,0.078,0.193,0.124,0.308c0.112,0.427,0.339,0.906,0.445,1.506
		c0.061,0.296,0.167,0.6,0.211,0.935c0.047,0.333,0.097,0.682,0.148,1.047c0.023,0.365,0.047,0.744,0.072,1.137
		c-0.016,0.388-0.033,0.79-0.05,1.202c-0.089,0.808-0.201,1.663-0.499,2.455c-0.238,0.828-0.663,1.548-1.118,2.252l-0.409,0.461
		l-0.201,0.238l-0.239,0.193l-0.463,0.416l-0.532,0.333l-0.263,0.173c-0.081,0.031-0.161,0.065-0.24,0.103
		c-0.158,0.075-0.314,0.16-0.473,0.255c-0.52,0.137-1.038,0.273-1.552,0.408c-1.176,0.221-2.332,0.455-3.461,0.704
		c-1.126,0.256-2.22,0.52-3.266,0.825c-1.041,0.324-2.037,0.639-2.937,1.02c-0.895,0.399-1.7,0.79-2.367,1.212
		c-0.666,0.424-1.218,0.808-1.651,1.165c-0.441,0.344-0.76,0.634-0.976,0.837c-0.216,0.204-0.331,0.313-0.331,0.313
		s0.156-0.029,0.448-0.084c0.287-0.057,0.707-0.141,1.242-0.248c0.53-0.095,1.166-0.218,1.884-0.323
		c0.726-0.083,1.516-0.199,2.392-0.235c0.872-0.051,1.821-0.088,2.845-0.083c1.032-0.014,2.121-0.03,3.248-0.045
		c0.947-0.023,1.931-0.057,2.928-0.102c0.457,2.188,0.121,4.217-1.03,6.046c-2.058,3.268-6.463,5.525-11.917,6.153
		c-0.764-0.736-1.533-1.289-2.204-1.689c-4.743-2.83-11.624-2.62-17.219,0.324c-0.298-0.539-0.655-1.179-1.015-1.974
		c-0.392-0.819-0.776-1.749-1.107-2.767c-0.28-1.023-0.602-2.117-0.681-3.264C20.386,83.079,20.435,81.901,20.686,80.729z
		 M93.988,171.954c-0.589,1.518-1.682,2.878-3.146,3.971c-0.729,0.546-1.541,1.026-2.404,1.434
		c-0.427,0.202-0.884,0.396-1.319,0.553l-0.395,0.142l-0.306,0.096c-0.19,0.067-0.444,0.129-0.667,0.194
		c-1.85,0.486-3.814,0.658-5.706,0.465c-1.893-0.179-3.72-0.709-5.261-1.594c-1.544-0.886-2.771-2.123-3.591-3.635l-2.23-4.116
		l-2.913,3.728c-0.299,0.383-0.614,0.764-0.991,1.107c-0.371,0.345-0.773,0.676-1.219,0.957c-0.433,0.296-0.909,0.543-1.392,0.771
		c-0.487,0.223-0.995,0.402-1.51,0.555c-0.519,0.135-1.043,0.252-1.57,0.31c-0.526,0.059-1.055,0.094-1.569,0.059
		c-0.519-0.012-1.022-0.095-1.51-0.202c-0.49-0.108-0.949-0.277-1.397-0.464c-0.432-0.215-0.852-0.446-1.232-0.736
		c-0.378-0.29-0.743-0.605-1.06-0.978c-0.327-0.362-0.621-0.77-0.876-1.217c-0.268-0.437-0.482-0.926-0.681-1.429l-0.269-0.78
		l-0.211-0.821c-0.106-0.566-0.24-1.126-0.282-1.726c-0.076-0.587-0.103-1.193-0.117-1.804c-0.03-0.607,0.023-1.236,0.027-1.853
		l0.006-1.107c0.071-0.37,0.145-0.828,0.194-1.361c0.077-0.78,0.105-1.716,0.057-2.738c-0.056-1.022-0.103-2.125-0.253-3.239
		c-0.132-1.112-0.333-2.238-0.639-3.289c-0.299-1.047-0.715-2.038-1.287-2.787c-0.282-0.374-0.615-0.675-0.929-0.888
		c-0.328-0.207-0.637-0.32-0.892-0.367c-0.518-0.077-0.783,0.027-0.782,0.005c-0.01,0.017,0.277,0.09,0.603,0.388
		c0.162,0.144,0.324,0.337,0.452,0.581c0.119,0.255,0.215,0.544,0.257,0.889c0.096,0.679,0.053,1.514-0.07,2.422
		c-0.133,0.909-0.332,1.884-0.568,2.868c-0.25,0.982-0.481,1.969-0.748,2.902c-0.257,0.933-0.455,1.818-0.569,2.6
		c-0.005,0.03-0.007,0.056-0.011,0.086c-0.382-0.024-0.766-0.041-1.142-0.089c-1.157-0.139-2.304-0.326-3.393-0.644
		c-2.185-0.607-4.212-1.588-5.788-2.995c-1.586-1.393-2.714-3.189-3.237-5.214c-0.534-2.024-0.462-4.252,0.071-6.437
		c0.225-0.888,0.542-1.765,0.9-2.632c0.111-0.15,0.222-0.302,0.3-0.481c0.086-0.198,0.135-0.402,0.168-0.607l0.124-0.266
		l0.446-0.865c0.263-0.479,0.548-0.968,0.867-1.472c1.234-1.994,2.79-3.789,4.525-5.602c1.728-1.811,3.685-3.638,5.347-5.836
		c0.828-1.094,1.564-2.278,2.121-3.533c0.545-1.261,0.943-2.563,1.107-3.888c-0.745,1.107-1.523,2.134-2.395,3.048
		c-0.85,0.929-1.79,1.742-2.758,2.52c-1.946,1.543-4.1,2.913-6.223,4.579c-2.128,1.646-4.166,3.655-5.807,5.992
		c-0.326,0.479-0.648,0.99-0.964,1.517c-6.645-3.99-11.597-12.35-12.601-21.644c-0.919-8.516,1.708-15.674,7.208-19.64
		c4.211-3.037,10.38-3.702,14.044-1.515c3.377,2.015,3.958,5.907,3.728,9.211c-0.134,0.104-0.272,0.205-0.403,0.312
		c-0.319-0.27-0.658-0.498-1.045-0.686c-0.498-0.186-1.058-0.312-1.572-0.332c-0.533-0.064-1.032-0.01-1.538,0.02
		c-0.491,0.07-0.984,0.147-1.441,0.291c-0.931,0.237-1.766,0.645-2.501,1.051c-0.726,0.438-1.336,0.899-1.817,1.343
		c-0.487,0.469-0.837,0.841-1.049,1.135c-0.221,0.291-0.347,0.457-0.347,0.457s0.202-0.052,0.556-0.143
		c0.346-0.115,0.857-0.221,1.415-0.305c0.287-0.031,0.598-0.065,0.927-0.101c0.323-0.031,0.671-0.016,1.009-0.036
		c0.347,0.019,0.694,0.022,1.04,0.068c0.345,0.049,0.684,0.08,1.007,0.172c0.328,0.059,0.624,0.189,0.909,0.274
		c0.26,0.128,0.532,0.222,0.708,0.374c0.085,0.048,0.142,0.104,0.199,0.157c-0.506,0.672-0.961,1.333-1.383,1.96
		c-0.81,1.199-1.504,2.33-2.193,3.332c-0.696,0.997-1.318,1.933-1.945,2.711c-0.583,0.823-1.17,1.476-1.617,2.068
		c-0.475,0.57-0.849,1.018-1.103,1.324c-0.253,0.317-0.388,0.486-0.388,0.486s0.812-0.286,2.182-0.942
		c0.663-0.357,1.492-0.778,2.374-1.369c0.444-0.292,0.914-0.61,1.387-0.973c0.49-0.348,0.979-0.743,1.466-1.176
		c1.005-0.843,2.021-1.821,3.032-2.838c0.748-0.758,1.503-1.498,2.272-2.207c0.386-0.2,0.716-0.489,0.952-0.851
		c1.031-0.854,2.103-1.63,3.315-2.262c0.644-0.282,1.132-0.565,1.987-0.866l0.584-0.223l0.292-0.111l0.073-0.028l0.018-0.007
		c0.027-0.011-0.168,0.069-0.078,0.033l0.032-0.01l0.126-0.039c0.335-0.107,0.666-0.223,1.003-0.304
		c1.339-0.369,2.699-0.502,3.967-0.402c1.267,0.112,2.455,0.4,3.466,0.931c1.018,0.516,1.856,1.234,2.55,2.03
		c0.683,0.813,1.176,1.734,1.56,2.647c0.739,1.849,0.936,3.668,1.011,4.938c0.013,0.302,0.024,0.572,0.034,0.807
		c0.005,0.091,0.003,0.19,0.001,0.286c-0.593,0.514-1.135,1.048-1.611,1.593c-0.83,0.951-1.48,1.928-1.981,2.841
		c-0.506,0.911-0.831,1.776-1.069,2.495c-0.222,0.726-0.364,1.31-0.426,1.715c-0.07,0.404-0.107,0.619-0.107,0.619
		c-0.014,0.081-0.011,0.161-0.017,0.242c-1.985,0.972-3.663,2.624-4.74,4.559c-0.561,0.98-0.99,2.021-1.275,3.082
		c-0.156,0.511-0.261,1.11-0.37,1.684L51,137.912l-0.024,0.168l-0.012,0.084l-0.006,0.042l-0.011,0.143l-0.022,0.431l-0.027,0.865
		l0.049,0.846c0.023,0.571,0.119,1.113,0.22,1.661c0.222,1.084,0.549,2.122,0.966,3.114c0.231,0.481,0.452,0.969,0.7,1.438
		c0.265,0.457,0.525,0.92,0.816,1.356c0.304,0.427,0.594,0.865,0.915,1.275c0.331,0.401,0.659,0.806,1.005,1.19l1.082,1.107
		l1.151,1.02c0.802,0.634,1.609,1.256,2.482,1.77c0.423,0.279,0.871,0.511,1.322,0.736c0.386,0.201,0.783,0.376,1.185,0.536
		c-0.039,0.053-0.084,0.104-0.122,0.157c-0.765,1.082-1.344,2.209-1.76,3.379c-0.823,2.338-1.061,4.787-0.737,7.101
		c0.138-2.33,0.913-4.566,2.172-6.382c0.626-0.904,1.349-1.731,2.18-2.34c0.147-0.106,0.299-0.196,0.45-0.288l0.078,0.141
		c0.426,0.66,0.84,1.367,1.316,1.913c0.899,1.179,1.969,2.18,3.027,3.021c1.067,0.847,2.138,1.514,3.127,2.102
		c0.98,0.555,1.906,1.08,2.762,1.564c1.667,0.947,3.03,1.806,3.973,2.493c0.477,0.335,0.836,0.626,1.098,0.815
		c0.264,0.19,0.405,0.292,0.405,0.292s-0.057-0.163-0.164-0.467c-0.127-0.292-0.257-0.771-0.549-1.299
		c-0.141-0.272-0.297-0.573-0.467-0.901c-0.183-0.321-0.408-0.647-0.639-1.011c-0.481-0.708-1.085-1.462-1.783-2.24
		c-0.701-0.76-1.502-1.547-2.314-2.323c-0.82-0.778-1.661-1.557-2.423-2.378c-0.78-0.811-1.498-1.662-2.123-2.589
		c-0.342-0.467-0.571-0.905-0.863-1.346c-0.146-0.26-0.3-0.576-0.449-0.862l-0.233-0.436l-0.028-0.051l-0.025-0.057l-0.077-0.172
		c-0.847-1.822-0.941-3.773-0.295-5.526c0.072-0.219,0.167-0.43,0.257-0.631l0.115-0.248l0.244-0.372
		c0.198-0.317,0.554-0.748,0.858-1.054c0.633-0.664,1.368-1.168,2.164-1.574c0.795-0.407,1.642-0.713,2.418-1.038
		c0.778-0.316,1.476-0.692,1.988-1.073c0.514-0.393,0.81-0.8,0.986-1.078c0.169-0.281,0.226-0.44,0.226-0.44
		s-0.139,0.109-0.408,0.264c-0.257,0.16-0.671,0.341-1.193,0.463c-0.526,0.13-1.179,0.163-1.973,0.186
		c-0.792,0.027-1.738,0.038-2.833,0.228c-1.089,0.184-2.33,0.601-3.488,1.336c-0.592,0.389-1.087,0.761-1.681,1.334l-0.329,0.32
		l-0.416,0.488c-0.241,0.309-0.47,0.619-0.677,0.953c-0.404,0.67-0.737,1.398-0.993,2.169c-0.214,0.709-0.342,1.453-0.41,2.21
		c-0.042-0.034-0.088-0.062-0.129-0.098c-0.637-0.491-1.238-1.012-1.814-1.556l-0.817-0.855l-0.747-0.905
		c-0.466-0.625-0.901-1.261-1.283-1.922c-0.19-0.33-0.343-0.676-0.529-1.006l-0.45-1.025l-0.36-1.038
		c-0.08-0.348-0.209-0.694-0.262-1.04c-0.133-0.687-0.259-1.379-0.232-2.03l-0.01-0.248l-0.001-0.016l0-0.008
		c0.007-0.083-0.01,0.105-0.008,0.081l0.003-0.042l0.006-0.085l0.011-0.17l0.045-0.674c0.05-0.317,0.063-0.619,0.147-0.984
		c0.141-0.699,0.307-1.385,0.587-2.012c0.549-1.255,1.354-2.371,2.451-3.25c1.091-0.875,2.463-1.523,3.985-1.747
		c1.514-0.202,3.199-0.005,4.723,1.177c-0.249-0.92-0.842-1.809-1.649-2.473c-0.805-0.674-1.797-1.13-2.84-1.403
		c-0.404-0.103-0.817-0.166-1.233-0.209c0.007-0.022,0.01-0.038,0.017-0.061c0.157-0.461,0.359-1.023,0.7-1.63
		c0.335-0.607,0.773-1.272,1.348-1.932c1.147-1.305,2.855-2.635,4.932-3.314c1.031-0.337,2.134-0.509,3.209-0.471
		c1.075,0.053,2.106,0.301,3.06,0.705c0.934,0.4,1.861,1.051,2.601,1.707c0.092,0.082,0.177,0.143,0.28,0.241l0.352,0.387
		l0.175,0.193l0.087,0.096l0.044,0.048l0.011,0.012c-0.024-0.032,0.07,0.089-0.052-0.069l0.015,0.017l0.243,0.274
		c0.316,0.379,0.597,0.815,0.835,1.285c0.464,0.943,0.82,1.998,1,3.054c0.175,1.055,0.273,2.108,0.227,3.087
		c-0.049,1.969-0.489,3.643-0.917,4.789c-0.435,1.146-0.819,1.792-0.819,1.792s0.151-0.104,0.435-0.298
		c0.28-0.205,0.693-0.523,1.15-0.997c0.932-0.931,2.093-2.515,2.87-4.751c0.361-1.117,0.689-2.383,0.758-3.776
		c0.081-1.368,0.012-2.872-0.436-4.413c0.597-0.047,1.225-0.03,1.855,0.082c1.455,0.245,2.864,0.897,4.059,1.786
		c1.194,0.902,2.158,2.082,2.837,3.442c0.677,1.364,1.069,2.908,1.208,4.529c0.278,3.256-0.432,6.751-1.622,10.111
		c-1.198,3.371-2.853,6.662-4.724,9.851l-1.05,1.79l1.31,1.703l0.982,1.276l0.923,1.3c0.583,0.879,1.147,1.764,1.63,2.669
		c0.989,1.802,1.721,3.667,2.055,5.478C94.674,168.72,94.587,170.437,93.988,171.954z"/>
	<linearGradient id="SVGID_15_" gradientUnits="userSpaceOnUse" x1="144.75" y1="3.2316" x2="144.75" y2="196.2201">
		<stop  offset="0" style="stop-color:#F64B7F"/>
		<stop  offset="1" style="stop-color:#93397F"/>
	</linearGradient>
	<path fill="url(#SVGID_15_)" d="M187,115c0-8.856-4.349-16.692-11.022-21.504C179.645,90.564,182,86.06,182,81
		c0-8.837-7.163-16-16-16c-0.1,0-0.197,0.013-0.297,0.015C167.758,62.579,169,59.436,169,56c0-7.732-6.268-14-14-14
		c-0.145,0-0.286,0.017-0.43,0.022C154.844,41.061,155,40.049,155,39c0-6.075-4.925-11-11-11c-2.251,0-4.343,0.679-6.086,1.84
		C137.083,21.784,130.276,15.5,122,15.5c-8.837,0-16,7.163-16,16c0,4.652,1.997,8.826,5.166,11.75C107.997,46.174,106,50.348,106,55
		c0,6.003,3.31,11.226,8.201,13.964C108.683,72.408,105,78.516,105,85.5c0,6.499,3.192,12.24,8.081,15.783
		c-6.316,3.621-10.581,10.414-10.581,18.217c0,7.539,3.986,14.13,9.951,17.834c-4.984,2.294-8.451,7.319-8.451,13.166
		c0,5.535,3.104,10.343,7.664,12.786c-1.053,1.832-1.664,3.949-1.664,6.214c0,6.904,5.596,12.5,12.5,12.5
		c4.633,0,8.668-2.527,10.828-6.272c2.031,1.427,4.501,2.272,7.172,2.272c6.904,0,12.5-5.596,12.5-12.5
		c0-1.73-0.352-3.378-0.988-4.877c1.125,0.242,2.29,0.377,3.488,0.377c9.113,0,16.5-7.387,16.5-16.5c0-1.83-0.31-3.585-0.86-5.229
		C180.476,135.172,187,125.85,187,115z"/>
	<g opacity="0.33">
		<linearGradient id="SVGID_16_" gradientUnits="userSpaceOnUse" x1="127.7639" y1="30.3333" x2="127.7639" y2="181.0313">
			<stop  offset="0" style="stop-color:#D60062"/>
			<stop  offset="1" style="stop-color:#5B0043"/>
		</linearGradient>
		<path fill="url(#SVGID_16_)" d="M120,29.999c6,5,7.5,12.001,3.5,17.501c-3.5-3.333-16.13,4.028-6.616,11.129
			c-3.979-0.295-4.271,4.852-0.05,7.371c3.82,2.281,9.667,2,9.667,2s-14.75,6.75-13.5,17.5s11.5,3,11.5,3L133,81l5-15l-11.5-6.001
			c0,0-4.034-4.605,3.347-0.942C138,63.104,145,52.167,138,48.214c10.346-4.534,0.833-17.047-5-6.593
			C132.333,36.833,128.096,31.267,120,29.999z"/>
		<linearGradient id="SVGID_17_" gradientUnits="userSpaceOnUse" x1="125.7724" y1="30.3333" x2="125.7724" y2="181.0313">
			<stop  offset="0" style="stop-color:#D60062"/>
			<stop  offset="1" style="stop-color:#5B0043"/>
		</linearGradient>
		<path fill="url(#SVGID_17_)" d="M123.5,128c12-6.5,6.914-18.399-1.5-19.167C111.5,107.875,106.875,125.625,123.5,128
			c-5.875,0-5,5.25-1.5,5.667c16.461,1.96,9.694,15.167,5.764,16.333c3.403,3.667,4.721,3.833,4.721,3.833l4.182-4.833L139,139l-4-9
			l-5-3.666L123.5,128z"/>
		<linearGradient id="SVGID_18_" gradientUnits="userSpaceOnUse" x1="142.6664" y1="30.3333" x2="142.6664" y2="181.0313">
			<stop  offset="0" style="stop-color:#D60062"/>
			<stop  offset="1" style="stop-color:#5B0043"/>
		</linearGradient>
		<path fill="url(#SVGID_18_)" d="M131.121,103.846C130,94.75,134.875,90.25,139,88.5c3.5,1.375,5,2.702,5,2.702L150,103l3,2.5
			l-1.25,4.5l2.625,8.5l-5.625,11L138,131.315c8.25-6.69,8.368-19.247,8.368-19.247L134,125l-1-2l3.614-9.614L131.121,103.846z"/>
		<linearGradient id="SVGID_19_" gradientUnits="userSpaceOnUse" x1="148.3336" y1="30.3333" x2="148.3336" y2="181.0313">
			<stop  offset="0" style="stop-color:#D60062"/>
			<stop  offset="1" style="stop-color:#5B0043"/>
		</linearGradient>
		<path fill="url(#SVGID_19_)" d="M183.667,101.833l-7.333-8L171.167,95l-4.333,9l-10,2.333l-2.434,1.802
			c8.601,5.365,14.934,1.532,18.934-0.635c4.333,3.833,1.664,8.5-2.834,7.5c5.001,5.333,1.834,10.001-4.499,9
			s-11.667,7.333-7.5,13.666c4.167,6.333-1.938,10.521-5.5,5.047c0.812,2.786-0.432,4.586-2.044,4.51
			c-3.394-0.161-5.123-10.057-11.33-7.223c0,1.833-4.302,14.067-4.302,14.067s5.779-1.832,8.676,5.266
			c3.333,8.167-4.167,10.833-6.833,5.176c-0.688-4.48-3.166-6.284-4.644-6.973C131.731,152.685,125,150.5,125,150.5
			c-2.5-7.167-14.357-6.722-13,1c1.083,6.167,6.262,6.377,9.333,5.5c4.083-1.167,7.25,0.667,8.666,4
			c1.554,3.656,1.167,8.5-2.236,10.333c-4.315,2.325-9.764,0.167-9.264-5.167c-6-2-8.5-1.167-8.5-1.167l0.833,11l6.667,5.167
			L125,182l8.333-6.167l4.833,1.667l6.834-0.338l5.5-4.496l1.833-5.333l0.667-5.5l6.333-1.5l8.895-5.333l3.772-7v-9.119l6.667-5.048
			l8-13V110L183.667,101.833z"/>
		<linearGradient id="SVGID_20_" gradientUnits="userSpaceOnUse" x1="160.2218" y1="30.3333" x2="160.2218" y2="181.0313">
			<stop  offset="0" style="stop-color:#D60062"/>
			<stop  offset="1" style="stop-color:#5B0043"/>
		</linearGradient>
		<path fill="url(#SVGID_20_)" d="M161.5,57.167c-2.5,10.5-14.667,6.167-16.5,16.913c-1.3,7.624,4.5,11.754,10,13.087
			c-4.333,9.833,6.833,15,9,5.667c3.099-0.943,7.33-1.993,9.961-4.333c3.372-3,1.584-9.167-4.961-6.509
			c4.667-7.324-1.667-14.442-6-6.991c-2.515,4.325-5.088,4.271-7.5,2.452c-3.25-2.452-4.375-6.952-0.5-8.827
			C157.973,67.187,161.25,64,161.5,57.167z"/>
		<linearGradient id="SVGID_21_" gradientUnits="userSpaceOnUse" x1="142.7918" y1="30.3333" x2="142.7918" y2="181.0313">
			<stop  offset="0" style="stop-color:#D60062"/>
			<stop  offset="1" style="stop-color:#5B0043"/>
		</linearGradient>
		<path fill="url(#SVGID_21_)" d="M137.25,85c1.75-4,4.869-6.529,7.75-7.548c2,4.298,3.333,6.392,3.333,6.392L145,90.5l-6-2
			L137.25,85z"/>
	</g>
	<linearGradient id="SVGID_22_" gradientUnits="userSpaceOnUse" x1="144.75" y1="184.5" x2="144.75" y2="13">
		<stop  offset="0" style="stop-color:#4A0D66"/>
		<stop  offset="1" style="stop-color:#886478"/>
	</linearGradient>
	<path fill="url(#SVGID_22_)" d="M189.5,115c0-8.426-3.646-16.348-9.901-21.823c3.074-3.425,4.901-7.92,4.901-12.677
		c0-8.771-5.987-16.225-14.186-18.363c0.781-1.938,1.186-4.013,1.186-6.137c0-8.259-6.107-15.101-14.038-16.296
		c0.012-0.235,0.038-0.467,0.038-0.704c0-7.444-6.056-13.5-13.5-13.5c-1.464,0-2.902,0.235-4.27,0.691
		C137.444,18.475,130.338,13,122,13c-10.201,0-18.5,8.299-18.5,18.5c0,4.291,1.52,8.455,4.234,11.75
		C105.02,46.545,103.5,50.709,103.5,55c0,5.437,2.402,10.544,6.444,14.022c-4.715,4.142-7.444,10.081-7.444,16.478
		c0,5.671,2.158,11.022,5.991,15.082C103.325,104.7,100,111.569,100,119.5c0,7.023,3.101,13.332,8.001,17.642
		c-4.035,3.183-6.501,8.092-6.501,13.358c0,5.623,2.755,10.602,6.974,13.698c-0.636,1.686-0.974,3.482-0.974,5.302
		c0,8.271,6.729,15,15,15c4.494,0,8.732-2.043,11.558-5.457c2.003,0.958,4.191,1.457,6.442,1.457c8.271,0,15-6.729,15-15
		c0-0.674-0.044-1.342-0.132-2c0.044,0,0.088,0,0.132,0c10.477,0,19-8.523,19-19c0-1.321-0.142-2.621-0.404-3.886
		C183.524,135.611,189.5,125.803,189.5,115z M156.298,44.578C162.029,45.226,166.5,50.098,166.5,56c0,2.373-0.726,4.658-2.1,6.608
		l-2.593,3.68l4.495,0.255c7.4,0.42,13.197,6.55,13.197,13.956c0,5.76-3.625,11.012-9.021,13.07l-1.233,0.47l-0.308,1.283
		c-1.176,4.908-5.519,8.336-10.562,8.336c-5.996,0-10.875-4.878-10.875-10.875c0-2.095,0.6-4.083,1.7-5.804
		c2.647,1.94,5.899,3.1,9.425,3.1c5.029,0,9.666-2.295,12.723-6.296l-3.975-3.035c-2.102,2.752-5.29,4.331-8.748,4.331
		c-6.065,0-11-4.935-11-11h-5c0,3.464,1.118,6.666,2.997,9.288c-0.963,1.293-1.712,2.708-2.235,4.212
		c-4.187-1.544-7.137-5.597-7.137-10.204c0-4.574,2.89-8.687,7.19-10.236l-0.017-0.046c5.764-2.196,9.878-7.765,9.878-14.291
		c0-1.217-0.147-2.427-0.44-3.615C154.34,47.904,155.505,46.33,156.298,44.578z M151.175,118.525
		c-2.168,2.422-3.746,5.373-4.51,8.642c-3.173,0-6.27,0.72-9.094,2.079c-0.605-0.756-1.278-1.459-2.003-2.111
		c5.449-3.293,9.43-8.726,10.8-15.067l-4.887-1.057c-0.751,3.472-2.5,6.598-4.937,9.052c0.611-1.871,0.956-3.909,0.956-6.063
		c0-8.594-5.589-15.355-13.514-17.067c0.731-5.351,4.255-9.906,9.242-11.953c1.971,3.577,5.277,6.347,9.284,7.57
		c-0.001,0.078-0.012,0.155-0.012,0.234c0,5.52,2.835,10.385,7.121,13.231c-0.186,1.179-0.288,2.374-0.288,3.572
		C149.333,112.66,149.971,115.715,151.175,118.525z M107.5,85.5c0-5.89,3-11.279,8.024-14.416l3.584-2.238l-3.687-2.064
		c-4.27-2.39-6.922-6.905-6.922-11.782c0-3.798,1.549-7.318,4.361-9.913l1.992-1.837l-1.992-1.837
		c-2.812-2.595-4.361-6.115-4.361-9.913c0-7.444,6.056-13.5,13.5-13.5c6.943,0,12.716,5.2,13.428,12.096l0.425,4.12l3.447-2.295
		c1.396-0.93,3.021-1.421,4.7-1.421c4.687,0,8.5,3.813,8.5,8.5c0,2.858-1.415,5.495-3.792,7.079l-1.896,0.947l0.806,2.114
		c0.453,1.192,0.684,2.424,0.684,3.662c0,5.681-4.621,10.302-10.302,10.302c-3.233,0-6.227-1.546-8.153-4.047
		c3.377-2.364,5.813-6.032,6.471-10.307l-4.941-0.761c-0.78,5.065-5.241,8.884-10.376,8.884c-1.147,0-2.272-0.183-3.346-0.543
		l-1.592,4.739c1.587,0.533,3.248,0.804,4.938,0.804c1.467,0,2.894-0.216,4.254-0.611c2.169,3.258,5.513,5.562,9.302,6.442
		c-1.095,1.425-1.954,3.027-2.519,4.749c-4.032,0.169-7.922,1.355-11.364,3.503l2.648,4.241c2.416-1.508,5.122-2.416,7.932-2.687
		c0.008,0.942,0.096,1.869,0.266,2.771c-6.821,2.716-11.625,8.943-12.522,16.246c-2.135,0.115-4.172,0.6-6.066,1.399
		C109.479,94.713,107.5,90.258,107.5,85.5z M172.406,135.827c-1.196-2.33-2.875-4.419-4.98-6.118l-3.141,3.891
		c3.313,2.675,5.214,6.647,5.214,10.9c0,7.72-6.28,14-14,14c-0.976,0-1.972-0.108-2.963-0.321l-4.708-1.013l1.881,4.434
		c0.524,1.234,0.79,2.547,0.79,3.9c0,5.514-4.486,10-10,10c-2.061,0-4.043-0.629-5.735-1.817l-2.237-1.573l-1.366,2.369
		c-1.785,3.098-5.104,5.021-8.661,5.021c-5.514,0-10-4.486-10-10c0-1.006,0.167-1.995,0.459-2.945
		c1.74,0.602,3.599,0.945,5.541,0.945c1.488,0,2.968-0.193,4.397-0.574l-1.289-4.832c-1.009,0.27-2.055,0.406-3.108,0.406
		c-6.617,0-12-5.383-12-12c0-4.246,2.27-8.162,5.869-10.309c3.315,1.791,7.106,2.809,11.131,2.809v-5
		c-10.201,0-18.5-8.299-18.5-18.5c0-10.094,6.589-18,15-18c7.243,0,12.5,5.257,12.5,12.5c0,7.198-4.576,11.5-9,11.5v5
		c2.153,0,4.17-0.561,5.975-1.543c4.304,2.22,7.025,6.617,7.025,11.543c0,4.002-1.797,7.686-4.87,10.142
		c-2.677-1.816-5.905-2.879-9.377-2.879c-1.409,0-2.811,0.176-4.165,0.522l1.238,4.844c0.951-0.243,1.936-0.366,2.927-0.366
		c6.478,0,11.747,5.27,11.747,11.747h5c0-3.949-1.382-7.576-3.676-10.443c3.907-3.389,6.176-8.276,6.176-13.567
		c0-2.44-0.49-4.784-1.381-6.933c1.892-0.849,3.938-1.315,6.035-1.381c0.122,4.533,1.787,8.897,4.749,12.335l3.789-3.264
		c-2.297-2.666-3.562-6.076-3.562-9.603c0-8.12,6.606-14.727,14.727-14.727c1.345,0,2.676,0.181,3.958,0.537l1.338-4.818
		c-1.717-0.477-3.499-0.719-5.296-0.719c-3.924,0-7.575,1.165-10.651,3.148c-0.576-1.758-0.872-3.594-0.872-5.489
		c0-0.485,0.027-0.969,0.066-1.452c1.273,0.33,2.601,0.524,3.976,0.524c6.928,0,12.951-4.428,15.071-10.917
		c0.8-0.37,1.566-0.796,2.297-1.267c5.516,4.541,8.757,11.306,8.757,18.525C184.5,123.686,179.826,131.586,172.406,135.827z"/>
	<g opacity="0.2">
		<linearGradient id="SVGID_23_" gradientUnits="userSpaceOnUse" x1="67.393" y1="67.393" x2="128.6404" y2="6.1455">
			<stop  offset="0" style="stop-color:#FFFFFF"/>
			<stop  offset="1" style="stop-color:#F8EA47;stop-opacity:0"/>
		</linearGradient>
		<path fill="url(#SVGID_23_)" d="M100.123,74.911c0.641-6.207-1.313-12.949-5.271-18.406c5.096-7.094,10.876-22.605,0.574-33.706
			c-5.926-6.386-13.144-9.025-19.801-7.246c-5.248,1.404-9.519,5.42-11.671,10.798c-5.977-2.567-12.865-1.405-17.64,3.241
			c-2.83,2.753-4.921,6.941-4.694,12.029l55.212,55.212c-1.252-2.503-2.824-4.829-4.513-6.927
			C96.856,85.688,99.54,80.548,100.123,74.911z"/>
		<linearGradient id="SVGID_24_" gradientUnits="userSpaceOnUse" x1="113.5465" y1="113.5465" x2="174.794" y2="52.2991">
			<stop  offset="0" style="stop-color:#FFFFFF"/>
			<stop  offset="1" style="stop-color:#F8EA47;stop-opacity:0"/>
		</linearGradient>
		<path fill="url(#SVGID_24_)" d="M174.5,144.5c0-1.321-0.142-2.621-0.404-3.886c9.428-5.003,15.404-14.811,15.404-25.614
			c0-8.426-3.646-16.348-9.901-21.823c3.074-3.425,4.901-7.92,4.901-12.677c0-8.771-5.987-16.225-14.186-18.363
			c0.781-1.938,1.186-4.013,1.186-6.137c0-8.259-6.107-15.101-14.038-16.296c0.012-0.235,0.038-0.467,0.038-0.704
			c0-7.444-6.056-13.5-13.5-13.5c-1.464,0-2.902,0.235-4.27,0.691C137.444,18.475,130.338,13,122,13c-10.201,0-18.5,8.299-18.5,18.5
			c0,4.291,1.52,8.455,4.234,11.75C105.02,46.545,103.5,50.709,103.5,55c0,5.437,2.402,10.544,6.444,14.022
			c-4.715,4.142-7.444,10.081-7.444,16.478c0,5.671,2.158,11.022,5.991,15.082c-1.44,1.148-2.731,2.517-3.853,4.056l57.604,57.604
			C169.395,159.513,174.5,152.6,174.5,144.5z"/>
	</g>
</g>
</svg>
